<svg xmlns="http://www.w3.org/2000/svg" xmlns:xlink="http://www.w3.org/1999/xlink" version="1.1" id="Layer_1" x="0px" y="0px" width="100px" height="100px" viewBox="5.0 -10.0 100.0 135.0" enable-background="new 0 0 100 100" xml:space="preserve">
<path fill="none" d="M14.202,84.274c-1.957,0-3.549,1.592-3.549,3.55c0,1.956,1.592,3.548,3.549,3.548  c0.915,0,1.742-0.357,2.372-0.928c0.043-0.04,0.095-0.071,0.137-0.112c0.643-0.643,1.041-1.53,1.041-2.508  C17.75,85.866,16.159,84.274,14.202,84.274z"/>
<path fill="#000000" d="M24.876,70.935l-9.761,9.762c-0.3-0.038-0.604-0.064-0.914-0.064c-3.972,0-7.191,3.221-7.191,7.192  c0,3.971,3.22,7.19,7.191,7.19c3.972,0,7.191-3.22,7.191-7.19c0-0.011-0.001-0.021-0.002-0.032l11.812-11.812  C29.277,74.787,26.464,73.087,24.876,70.935z M16.71,90.332c-0.042,0.041-0.093,0.072-0.137,0.112  c-0.63,0.57-1.457,0.928-2.372,0.928c-1.957,0-3.549-1.592-3.549-3.548c0-1.958,1.592-3.55,3.549-3.55s3.549,1.592,3.549,3.55  C17.75,88.802,17.353,89.689,16.71,90.332z"/>
<path fill="#000000" d="M81.418,4.984c-1.561,0-3.047,0.31-4.411,0.858l7.577,7.576l-1.312,5.691l-5.692,1.313l-7.375-7.376  c-0.4,1.188-0.627,2.455-0.627,3.778c0,2.649,0.88,5.087,2.35,7.06l-2.774,2.774c2.554,1.9,4.736,4.224,6.497,6.875l4.91-4.91  c0.284,0.02,0.568,0.043,0.858,0.043c6.539,0,11.84-5.302,11.84-11.842C93.258,10.287,87.957,4.984,81.418,4.984z"/>
<path fill="#000000" d="M76.891,51.041c0-10.717-5.261-19.938-14.367-24.101v-3.445h-4.553v-2.732H43.4v2.732  c-1.821,0-4.553,0-4.553,0v3.128C29.74,30.626,23.643,40.05,23.643,51.041c0,6.965,0.634,10.438,3.366,12.171v3.167  c0,4.907,9.526,7.979,23.222,7.979c13.696,0,23.221-2.878,23.221-7.784v-3.373C77.094,61.465,76.891,57.991,76.891,51.041z   M56.149,26.227h2.731v35.039c-0.863,0.009-1.784,0.015-2.731,0.019V26.227z M47.042,23.495h7.286v37.796h-7.286V23.495z   M42.489,26.227h2.732v35.06c-0.945-0.003-1.866-0.007-2.732-0.014V26.227z M27.411,51.041c0-1.631,0.177-3.229,0.5-4.78  c1.461-6.999,6.093-12.96,12.757-15.995v30.988c-4.534-0.062-7.873-0.232-10.017-0.676c-0.783-0.162-1.409-0.36-1.874-0.604  C27.578,59.344,27.411,57.608,27.411,51.041z M69.809,66.462c0,0.236-1.194,2.492-5.168,3.098  c-3.343,0.509-7.912,1.156-14.305,1.156c-16.342,0-18.774-3.86-19.685-4.419v-2.011c3.914,0.646,10.003,0.649,19.52,0.649  c9.566,0,15.695-0.003,19.638-0.659V66.462z M71.752,59.974c-0.479,0.252-1.128,0.454-1.943,0.619  c-2.01,0.405-5.049,0.575-9.106,0.647V30.659c6.214,3.134,10.547,8.922,11.961,15.603c0.328,1.553,0.504,3.153,0.504,4.78  C73.167,57.608,72.951,59.344,71.752,59.974z"/>
<text x="0.0" y="117.5" font-size="5.0" font-weight="bold" font-family="Helvetica Neue, Helvetica, Arial-Unicode, Arial, Sans-serif" fill="#000000">Created by Scott Baker</text><text x="0.0" y="122.5" font-size="5.0" font-weight="bold" font-family="Helvetica Neue, Helvetica, Arial-Unicode, Arial, Sans-serif" fill="#000000">from the Noun Project</text></svg>