<svg xmlns="http://www.w3.org/2000/svg" xmlns:xlink="http://www.w3.org/1999/xlink" version="1.1" width="96" height="96" viewBox="4.8 -9.6 96.0 129.6">
<path d="M21.936 83.124h-20c-1.1 0-2-0.9-2-2v-36c0-1.104 0.9-2 2-2h20c1.1 0 2 0.896 2 2v36c0 1.104-0.9 2-2 2zM3.936 79.124h16v-32h-16v32z" fill="#000000"/>
	<path d="M55.312 88.876c-6.864 0-15.368-4.016-22.196-7.244-4.044-1.916-8.228-3.884-9.928-3.884-1.096 0-2-0.896-2-2s0.904-2 2-2c2.6 0 6.588 1.884 11.64 4.264 6.464 3.056 14.516 6.856 20.488 6.856 11.78 0 36.752-14.888 36.752-19 0-3.456-1.46-5-4.752-5-1.040 0-3.78 2.248-5.78 3.888-4.4 3.584-9.376 7.648-14.14 6.284-0.984-0.276-1.6-1.26-1.416-2.276 0.304-1.68-0.164-2.448-0.54-2.892-2.116-2.444-8.96-2.196-12.608-2.064-0.82 0.032-1.556 0.060-2.124 0.060-2.16 0-3.948-1.148-6.22-2.596-3.936-2.532-9.336-5.992-20.568-6.148-1.104-0.016-1.988-0.924-1.972-2.032 0.016-1.1 0.892-1.94 2.028-1.968 12.38 0.172 18.576 4.148 22.672 6.776 1.724 1.096 3.076 1.968 4.060 1.968 0.54 0 1.212-0.024 1.976-0.060 4.928-0.172 12.416-0.448 15.772 3.44 0.976 1.12 1.508 2.456 1.6 3.992 2.664-0.448 6.084-3.252 8.944-5.584 3.264-2.68 5.852-4.788 8.312-4.788 5.564 0 8.752 3.28 8.752 9 0 8.492-30.056 23.008-40.752 23.008z" fill="#000000"/>
	<path d="M67.936 71.124h-28c-1.1 0-2-0.9-2-2s0.9-2 2-2h28c1.1 0 2 0.9 2 2s-0.896 2-2 2z" fill="#000000"/>
	<path d="M73.936 19.124h-12c-3.312 0-6-2.692-6-6s2.688-6 6-6h12c3.304 0 6 2.692 6 6s-2.692 6-6 6zM61.936 11.124c-1.084 0-2 0.916-2 2 0 1.1 0.9 2 2 2h12c1.1 0 2-0.9 2-2 0-1.084-0.916-2-2-2h-12z" fill="#000000"/>
	<path d="M53.936 35.124h-12c-3.308 0-6-2.692-6-6s2.692-6 6-6h12c3.304 0 6 2.692 6 6s-2.692 6-6 6zM41.936 27.124c-1.084 0-2 0.916-2 2 0 1.1 0.9 2 2 2h12c1.1 0 2-0.9 2-2 0-1.084-0.916-2-2-2h-12z" fill="#000000"/>
	<path d="M73.936 51.124h-12c-3.312 0-6-2.692-6-6s2.688-6 6-6h12c3.304 0 6 2.692 6 6s-2.692 6-6 6zM61.936 43.124c-1.084 0-2 0.916-2 2 0 1.1 0.9 2 2 2h12c1.1 0 2-0.9 2-2 0-1.084-0.916-2-2-2h-12z" fill="#000000"/>
<text x="0.0" y="112.8" font-size="4.8" font-weight="bold" font-family="Helvetica Neue, Helvetica, Arial-Unicode, Arial, Sans-serif" fill="#000000">Created by iconsmind.com</text><text x="0.0" y="117.6" font-size="4.8" font-weight="bold" font-family="Helvetica Neue, Helvetica, Arial-Unicode, Arial, Sans-serif" fill="#000000">from the Noun Project</text></svg>